<?xml version="1.0" encoding="utf-8"?>
<!-- Generator: Adobe Illustrator 27.5.0, SVG Export Plug-In . SVG Version: 6.00 Build 0)  -->
<svg version="1.1" id="Layer_1" xmlns="http://www.w3.org/2000/svg" xmlns:xlink="http://www.w3.org/1999/xlink" x="0px" y="0px"
	 viewBox="0 0 1200 600" style="enable-background:new 0 0 1200 600;" xml:space="preserve">
<g>
	<defs>
		<rect id="SVGID_1_" x="0" y="0" width="1200" height="600"/>
	</defs>
	<clipPath id="SVGID_00000092417577479551656350000006990732705275481736_">
		<use xlink:href="#SVGID_1_"  style="overflow:visible;"/>
	</clipPath>
	
		<rect x="0" y="0" style="clip-path:url(#SVGID_00000092417577479551656350000006990732705275481736_);fill:#FFFFFF;" width="1200" height="600"/>
	<g style="clip-path:url(#SVGID_00000092417577479551656350000006990732705275481736_);">
		<g>
			<g>
				<g>
					<g>
						<polygon style="opacity:0.4;fill:#ED1C24;" points="40.967,342.435 55.818,377.085 69.957,324.324 69.957,324.324 						"/>
						<polygon style="opacity:0.5;fill:#ED1C24;" points="31.335,285.702 -23.545,321.271 40.967,342.435 31.335,285.702 						"/>
						<polygon style="opacity:0.55;fill:#ED1C24;" points="0,274.342 -23.545,321.271 -23.545,321.271 31.335,285.702 						"/>
						<polygon style="opacity:0.45;fill:#ED1C24;" points="31.335,285.702 40.967,342.435 40.967,342.435 69.957,324.324 						"/>
						<polygon style="opacity:0.25;fill:#ED1C24;" points="94.44,415.706 129.859,437.402 114.239,395.908 						"/>
						<polygon style="opacity:0.3;fill:#ED1C24;" points="114.239,395.908 55.818,377.085 94.44,415.706 94.44,415.706 
							114.239,395.908 						"/>
						<polygon style="opacity:0.35;fill:#ED1C24;" points="69.957,324.324 55.818,377.085 55.818,377.085 114.239,395.908 						"/>
					</g>
					<g>
						<polygon style="opacity:0.3;fill:#ED1C24;" points="124.07,294.515 124.07,294.515 114.239,395.908 161.339,348.807 
							161.339,348.807 						"/>
						<polygon style="opacity:0.2;fill:#ED1C24;" points="161.339,348.807 161.339,348.807 129.859,437.402 182.231,397.514 
							182.231,397.514 						"/>
						<polygon style="opacity:0.35;fill:#ED1C24;" points="69.957,324.324 69.957,324.324 114.239,395.908 114.239,395.908 
							124.07,294.515 						"/>
						<polygon style="opacity:0.55;fill:#ED1C24;" points="31.335,285.702 45.474,232.941 0,274.342 0,274.342 31.335,285.702 
													"/>
						<polygon style="opacity:0.65;fill:#ED1C24;" points="24.663,195.108 -44.596,231.954 -44.596,231.954 0,274.342 0,274.342 
													"/>
						<polygon style="opacity:0.7;fill:#ED1C24;" points="24.663,195.108 -37.075,183.842 -44.596,231.954 24.663,195.108 						"/>
						<polygon style="opacity:0.25;fill:#ED1C24;" points="161.339,348.807 114.239,395.908 114.239,395.908 129.859,437.402 
							129.859,437.402 						"/>
						<polygon style="opacity:0.5;fill:#ED1C24;" points="45.474,232.941 45.474,232.941 31.335,285.702 78.405,299.322 						"/>
						<polygon style="opacity:0.45;fill:#ED1C24;" points="78.405,299.322 31.335,285.702 31.335,285.702 69.957,324.324 
							69.957,324.324 78.405,299.322 						"/>
						<polygon style="opacity:0.4;fill:#ED1C24;" points="78.405,299.322 69.957,324.324 124.07,294.515 124.07,294.514 						"/>
						<polygon style="opacity:0.6;fill:#ED1C24;" points="24.663,195.108 24.663,195.108 0,274.342 45.474,232.941 45.474,232.941 
													"/>
					</g>
					<g>
						<polygon style="opacity:0.6;fill:#ED1C24;" points="121.5,195.536 121.5,195.536 73.752,127.42 73.752,127.42 59.613,180.181 
							59.613,180.181 						"/>
						<polygon style="opacity:0.4;fill:#ED1C24;" points="170.306,223.974 170.306,223.974 136.856,257.424 189.617,243.285 
							189.617,243.285 						"/>
						<polygon style="opacity:0.3;fill:#ED1C24;" points="189.617,243.285 189.617,243.285 165.372,322.444 228.239,281.907 
							228.239,281.907 						"/>
						<polygon style="opacity:0.25;fill:#ED1C24;" points="165.372,322.444 216.667,322.037 228.239,281.907 165.372,322.444 						
							"/>
						<polygon style="opacity:0.35;fill:#ED1C24;" points="189.617,243.285 136.856,257.424 136.857,257.424 165.372,322.444 
							165.372,322.444 						"/>
						<polygon style="opacity:0.55;fill:#ED1C24;" points="121.5,195.536 59.613,180.181 87.892,240.179 87.892,240.179 						"/>
						<polygon style="opacity:0.5;fill:#ED1C24;" points="170.306,223.974 170.306,223.974 121.5,195.536 121.5,195.536 
							87.892,240.179 						"/>
						<polygon style="opacity:0.45;fill:#ED1C24;" points="87.892,240.179 87.892,240.179 136.856,257.424 136.856,257.424 
							170.306,223.974 						"/>
						<polygon style="opacity:0.8;fill:#ED1C24;" points="23.556,106.418 23.556,106.418 -3.492,50.176 -3.492,50.176 
							-16.244,113.642 						"/>
						<polygon style="opacity:0.85;fill:#ED1C24;" points="-16.244,113.642 -3.492,50.176 -51.278,43.126 -16.244,113.642 						"/>
						<polygon style="opacity:0.9;fill:#ED1C24;" points="-51.278,43.126 -3.492,50.176 -3.492,50.176 -42.114,11.554 
							-42.114,11.554 -51.278,43.126 						"/>
						<polygon style="opacity:0.2;fill:#ED1C24;" points="273.866,324.038 228.239,281.907 228.239,281.907 216.667,322.037 
							216.667,322.037 273.866,324.038 						"/>
						<polygon style="opacity:0.15;fill:#ED1C24;" points="216.667,322.037 270.002,362.197 270.002,362.197 273.866,324.038 						
							"/>
						<polygon style="opacity:0.1;fill:#ED1C24;" points="270.002,362.197 305.482,359.15 273.866,324.038 273.866,324.038 						
							"/>
						<polygon style="opacity:0.7;fill:#ED1C24;" points="73.752,127.42 73.752,127.42 23.556,106.418 23.556,106.418 
							20.991,141.559 						"/>
						<polygon style="opacity:0.75;fill:#ED1C24;" points="23.556,106.418 -16.244,113.642 -16.244,113.642 20.991,141.559 
							20.991,141.559 						"/>
						<polygon style="opacity:0.65;fill:#ED1C24;" points="73.752,127.42 20.991,141.559 20.991,141.559 59.613,180.181 						"/>
					</g>
					<g>
						<polygon style="opacity:0.55;fill:#ED1C24;" points="59.613,180.181 59.613,180.181 45.474,232.941 45.474,232.941 
							87.892,240.179 						"/>
						<polygon style="opacity:0.4;fill:#ED1C24;" points="78.405,299.322 78.405,299.322 124.07,294.514 136.857,257.424 
							136.856,257.424 						"/>
						<polygon style="opacity:0.5;fill:#ED1C24;" points="87.892,240.179 87.892,240.179 45.474,232.941 78.405,299.322 
							78.405,299.322 						"/>
						<polygon style="opacity:0.75;fill:#ED1C24;" points="-37.075,183.842 20.991,141.559 -16.244,113.642 						"/>
						<polygon style="opacity:0.6;fill:#ED1C24;" points="24.663,195.108 45.474,232.941 59.613,180.181 						"/>
						<polygon style="opacity:0.2;fill:#ED1C24;" points="182.231,397.514 216.667,322.037 161.339,348.807 						"/>
						<polygon style="opacity:0.45;fill:#ED1C24;" points="78.405,299.322 136.856,257.424 87.892,240.179 						"/>
						<polygon style="opacity:0.15;fill:#ED1C24;" points="216.667,322.037 216.667,322.037 182.231,397.514 182.231,397.514 
							270.002,362.197 						"/>
						<polygon style="opacity:0.7;fill:#ED1C24;" points="20.991,141.559 20.991,141.559 -37.075,183.842 -37.075,183.842 
							24.663,195.108 						"/>
						<polygon style="opacity:0.35;fill:#ED1C24;" points="136.857,257.424 124.07,294.514 124.07,294.515 165.372,322.444 						
							"/>
						<polygon style="opacity:0.3;fill:#ED1C24;" points="165.372,322.444 124.07,294.515 161.339,348.807 165.372,322.444 						
							"/>
						<polygon style="opacity:0.25;fill:#ED1C24;" points="165.372,322.444 161.339,348.807 161.339,348.807 216.667,322.037 
							216.667,322.037 						"/>
						<polygon style="opacity:0.65;fill:#ED1C24;" points="59.613,180.181 59.613,180.181 20.991,141.559 24.663,195.108 
							24.663,195.108 						"/>
					</g>
					<g>
						<polygon style="opacity:0.4;fill:#ED1C24;" points="258.114,200.194 266.083,152.502 221.191,119.373 						"/>
						<polygon style="opacity:0.45;fill:#ED1C24;" points="221.191,119.373 221.191,119.373 266.083,152.502 266.083,152.502 
							232.034,85.003 						"/>
						<polygon style="opacity:0.6;fill:#ED1C24;" points="179.273,99.142 218.553,52.489 218.553,52.489 162.88,59.36 162.88,59.36 
													"/>
						<polygon style="opacity:0.35;fill:#ED1C24;" points="266.083,152.502 258.114,200.194 258.114,200.194 309.277,162.247 
							309.277,162.246 266.083,152.502 						"/>
						<polygon style="opacity:0.2;fill:#ED1C24;" points="295.139,215.007 333.76,253.629 323.056,208.456 323.056,208.456 						
							"/>
						<polygon style="opacity:0.25;fill:#ED1C24;" points="295.139,215.007 295.139,215.007 323.056,208.456 309.277,162.247 
							309.277,162.247 						"/>
						<polygon style="opacity:0.65;fill:#ED1C24;" points="154.79,7.759 162.88,59.36 218.553,52.489 						"/>
						<polygon style="opacity:0.1;fill:#ED1C24;" points="372.382,292.251 386.521,239.49 333.76,253.629 						"/>
						<polygon style="opacity:0.55;fill:#ED1C24;" points="232.034,85.003 218.553,52.489 179.273,99.142 179.273,99.142 						"/>
						<polygon style="opacity:0.5;fill:#ED1C24;" points="221.191,119.373 232.034,85.003 232.034,85.003 179.273,99.142 						"/>
						<polygon style="opacity:0.3;fill:#ED1C24;" points="309.277,162.247 258.114,200.194 295.139,215.007 						"/>
						<polygon style="opacity:0.8;fill:#ED1C24;" points="131.731,-34.333 131.731,-34.333 63.408,-16.724 63.408,-16.724 
							96.874,38.953 						"/>
						<polygon style="opacity:0.75;fill:#ED1C24;" points="96.874,38.953 154.79,7.759 131.731,-34.333 96.874,38.953 						"/>
						<polygon style="opacity:0.7;fill:#ED1C24;" points="162.88,59.36 162.88,59.36 154.79,7.759 154.79,7.759 96.874,38.953 
													"/>
						<polygon style="opacity:0.15;fill:#ED1C24;" points="333.76,253.629 333.76,253.629 386.521,239.49 386.521,239.49 
							323.056,208.456 						"/>
					</g>
					<g>
						<polygon style="opacity:0.35;fill:#ED1C24;" points="203.756,190.525 215.998,236.216 215.998,236.216 258.114,200.194 
							203.756,190.525 						"/>
						<polygon style="opacity:0.4;fill:#ED1C24;" points="221.191,119.373 203.756,190.525 258.114,200.194 258.114,200.194 
							221.191,119.373 						"/>
						<polygon style="opacity:0.65;fill:#ED1C24;" points="133.513,137.529 133.513,137.529 162.88,59.36 162.88,59.36 76.9,91.599 
							76.9,91.599 						"/>
						<polygon style="opacity:0.3;fill:#ED1C24;" points="258.114,200.194 258.114,200.194 215.998,236.216 295.139,215.007 
							295.139,215.007 						"/>
						<polygon style="opacity:0.25;fill:#ED1C24;" points="215.998,236.216 308.167,271.578 295.139,215.007 215.998,236.216 						
							"/>
						<polygon style="opacity:0.7;fill:#ED1C24;" points="96.874,38.953 96.873,38.953 76.9,91.599 162.88,59.36 						"/>
						<polygon style="opacity:0.5;fill:#ED1C24;" points="179.273,99.142 165.134,151.903 221.191,119.373 221.191,119.373 
							179.273,99.142 						"/>
						<polygon style="opacity:0.55;fill:#ED1C24;" points="165.134,151.903 165.134,151.903 179.273,99.142 133.513,137.529 
							133.513,137.529 						"/>
						<polygon style="opacity:0.6;fill:#ED1C24;" points="179.273,99.142 162.88,59.36 133.513,137.529 179.273,99.142 						"/>
						<polygon style="opacity:0.45;fill:#ED1C24;" points="165.134,151.903 203.756,190.525 203.756,190.525 221.191,119.373 
							165.134,151.903 						"/>
						<polygon style="opacity:0.1;fill:#ED1C24;" points="333.76,253.629 333.76,253.629 319.621,306.39 372.382,292.251 
							372.382,292.251 						"/>
						<polygon style="opacity:0.05;fill:#ED1C24;" points="319.621,306.39 358.243,345.012 372.382,292.251 319.621,306.39 						
							"/>
						<polygon style="opacity:0.75;fill:#ED1C24;" points="76.9,91.599 76.9,91.599 96.873,38.953 38.589,58.808 38.589,58.808 
													"/>
						<polygon style="opacity:0.8;fill:#ED1C24;" points="96.874,38.953 63.408,-16.724 38.589,58.808 96.873,38.953 						"/>
						<polygon style="opacity:0.15;fill:#ED1C24;" points="319.621,306.39 319.621,306.39 333.76,253.629 308.168,271.578 						"/>
						<polygon style="opacity:0.2;fill:#ED1C24;" points="295.139,215.007 295.139,215.007 308.167,271.578 308.168,271.578 
							333.76,253.629 333.76,253.629 						"/>
						<polygon style="opacity:0.85;fill:#ED1C24;" points="38.589,58.808 38.589,58.808 63.408,-16.724 63.408,-16.724 
							10.647,-2.585 10.647,-2.585 						"/>
					</g>
					<g>
						<polygon style="opacity:0.35;fill:#ED1C24;" points="203.756,190.525 189.617,243.285 189.617,243.285 215.998,236.216 						
							"/>
						<polygon style="opacity:0.3;fill:#ED1C24;" points="189.617,243.285 228.239,281.907 215.998,236.216 215.998,236.216 						
							"/>
						<polygon style="opacity:0.7;fill:#ED1C24;" points="76.9,91.599 23.556,106.418 73.752,127.42 76.9,91.599 						"/>
						<polygon style="opacity:0.65;fill:#ED1C24;" points="133.513,137.529 76.9,91.599 73.752,127.42 73.752,127.42 						"/>
						<polygon style="opacity:0.25;fill:#ED1C24;" points="228.239,281.907 228.239,281.907 308.167,271.578 308.167,271.578 
							215.998,236.216 						"/>
						<polygon style="opacity:0.2;fill:#ED1C24;" points="273.866,324.038 308.167,271.578 228.239,281.907 						"/>
						<polygon style="opacity:0.5;fill:#ED1C24;" points="165.134,151.903 121.5,195.536 170.306,223.974 165.134,151.903 						"/>
						<polygon style="opacity:0.55;fill:#ED1C24;" points="165.134,151.903 133.513,137.529 121.5,195.536 121.5,195.536 						"/>
						<polygon style="opacity:0.6;fill:#ED1C24;" points="133.513,137.529 73.752,127.42 121.5,195.536 133.513,137.529 						"/>
						<polygon style="opacity:0.4;fill:#ED1C24;" points="170.306,223.974 189.617,243.285 203.756,190.525 203.756,190.525 						
							"/>
						<polygon style="opacity:0.45;fill:#ED1C24;" points="165.134,151.903 170.306,223.974 170.306,223.974 203.756,190.525 						
							"/>
						<polygon style="opacity:0.1;fill:#ED1C24;" points="319.621,306.39 273.866,324.038 305.482,359.15 305.482,359.15 
							319.621,306.39 						"/>
						<polygon style="opacity:0.05;fill:#ED1C24;" points="305.482,359.15 358.243,345.012 319.621,306.39 						"/>
						<polygon style="opacity:0.9;fill:#ED1C24;" points="10.647,-2.585 -42.114,11.554 -3.492,50.176 10.647,-2.585 						"/>
						<polygon style="opacity:0.85;fill:#ED1C24;" points="38.589,58.808 10.647,-2.585 -3.492,50.176 -3.492,50.176 						"/>
						<polygon style="opacity:0.95;fill:#ED1C24;" points="10.647,-2.585 -70.103,-27.709 -42.114,11.554 -42.114,11.554 						"/>
						<polygon style="opacity:0.75;fill:#ED1C24;" points="76.9,91.599 38.589,58.808 23.556,106.418 23.556,106.418 						"/>
						<polygon style="opacity:0.8;fill:#ED1C24;" points="38.589,58.808 -3.492,50.176 23.556,106.418 38.589,58.808 						"/>
						<polygon style="opacity:0.15;fill:#ED1C24;" points="308.167,271.578 273.866,324.038 273.866,324.038 319.621,306.39 
							308.168,271.578 						"/>
					</g>
					<g>
						<polygon style="opacity:0.55;fill:#ED1C24;" points="232.034,85.003 232.034,85.003 246.173,32.242 218.553,52.489 
							218.553,52.489 						"/>
						<polygon style="opacity:0.45;fill:#ED1C24;" points="266.083,152.502 265.484,85.004 232.034,85.003 232.034,85.003 						"/>
						<polygon style="opacity:0.5;fill:#ED1C24;" points="246.173,32.242 232.034,85.003 265.484,85.004 265.484,85.004 
							246.173,32.242 						"/>
						<polygon style="opacity:0.35;fill:#ED1C24;" points="309.277,162.246 336.842,86.406 266.083,152.502 						"/>
						<polygon style="opacity:0.7;fill:#ED1C24;" points="208.389,18.391 168.929,-45.002 154.79,7.759 208.389,18.391 						"/>
						<polygon style="opacity:0.65;fill:#ED1C24;" points="218.553,52.489 218.553,52.489 208.389,18.391 154.79,7.759 
							154.79,7.759 						"/>
						<polygon style="opacity:0.4;fill:#ED1C24;" points="266.083,152.502 266.083,152.502 336.842,86.406 336.841,86.406 
							265.484,85.004 265.484,85.004 						"/>
						<polygon style="opacity:0.25;fill:#ED1C24;" points="323.056,208.456 357.015,174.496 309.277,162.247 323.056,208.456 						
							"/>
						<polygon style="opacity:0.6;fill:#ED1C24;" points="246.173,32.242 208.389,18.391 208.389,18.391 218.553,52.489 
							246.173,32.242 						"/>
						<polygon style="opacity:0.75;fill:#ED1C24;" points="131.731,-34.333 154.79,7.759 154.79,7.759 168.929,-45.002 
							168.929,-45.002 131.731,-34.333 						"/>
						<polygon style="opacity:0.15;fill:#ED1C24;" points="323.056,208.456 386.521,239.49 390.211,207.693 323.056,208.456 						
							"/>
						<polygon style="opacity:0.2;fill:#ED1C24;" points="323.056,208.456 390.211,207.693 390.211,207.693 357.015,174.496 
							357.015,174.496 						"/>
						<polygon style="opacity:0.3;fill:#ED1C24;" points="336.842,86.406 309.277,162.246 309.277,162.247 357.015,174.496 
							357.015,174.496 336.842,86.406 						"/>
					</g>
					<g>
						<polygon style="opacity:0.35;fill:#ED1C24;" points="407.041,25.861 337.555,56.725 370.759,100.765 						"/>
						<polygon style="opacity:0.5;fill:#ED1C24;" points="313.072,-34.658 302.04,21.21 341.079,20.097 341.079,20.096 
							313.072,-34.658 						"/>
						<polygon style="opacity:0.4;fill:#ED1C24;" points="337.555,56.725 337.555,56.725 407.041,25.861 407.041,25.861 
							341.079,20.097 341.079,20.097 						"/>
						<polygon style="opacity:0.25;fill:#ED1C24;" points="414.799,133.968 456.345,75.165 370.759,100.765 						"/>
						<polygon style="opacity:0.3;fill:#ED1C24;" points="370.759,100.765 370.759,100.765 456.345,75.165 456.345,75.165 
							407.041,25.861 407.041,25.861 						"/>
						<polygon style="opacity:0.55;fill:#ED1C24;" points="302.04,21.21 302.04,21.21 313.072,-34.658 285.676,-25.982 
							285.676,-25.982 						"/>
						<polygon style="opacity:0.45;fill:#ED1C24;" points="337.555,56.725 341.079,20.097 302.04,21.21 302.04,21.21 						"/>
					</g>
					<g>
						<polygon style="opacity:0.5;fill:#ED1C24;" points="265.484,85.004 302.04,21.21 302.04,21.21 246.173,32.242 						"/>
						<polygon style="opacity:0.55;fill:#ED1C24;" points="246.173,32.242 302.04,21.21 285.676,-25.982 246.173,32.242 						"/>
						<polygon style="opacity:0.6;fill:#ED1C24;" points="246.173,32.242 285.676,-25.982 285.676,-25.982 208.389,18.391 						"/>
						<polygon style="opacity:0.65;fill:#ED1C24;" points="285.676,-25.982 220.432,-24.295 208.389,18.391 208.389,18.391 						
							"/>
						<polygon style="opacity:0.4;fill:#ED1C24;" points="337.555,56.725 265.484,85.004 336.841,86.406 						"/>
						<polygon style="opacity:0.2;fill:#ED1C24;" points="414.799,133.968 357.015,174.496 390.211,207.693 						"/>
						<polygon style="opacity:0.25;fill:#ED1C24;" points="370.759,100.765 357.015,174.496 357.015,174.496 414.799,133.968 
							414.799,133.968 370.759,100.765 						"/>
						<polygon style="opacity:0.7;fill:#ED1C24;" points="208.389,18.391 220.432,-24.295 220.432,-24.295 168.929,-45.002 
							168.929,-45.002 						"/>
						<polygon style="opacity:0.35;fill:#ED1C24;" points="336.841,86.406 336.842,86.406 370.759,100.765 370.759,100.765 
							337.555,56.725 337.555,56.725 						"/>
						<polygon style="opacity:0.45;fill:#ED1C24;" points="265.484,85.004 265.484,85.004 337.555,56.725 337.555,56.725 
							302.04,21.21 						"/>
						<polygon style="opacity:0.3;fill:#ED1C24;" points="357.015,174.496 370.759,100.765 336.842,86.406 						"/>
					</g>
				</g>
			</g>
			<g>
				<g>
					<g>
						<polygon style="opacity:0.4;fill:#ED1C24;" points="341.079,20.097 407.042,25.861 404.455,-10.175 404.455,-10.175 						"/>
						<polygon style="opacity:0.5;fill:#ED1C24;" points="342.694,-48.655 313.073,-34.658 341.079,20.097 342.694,-48.655 						
							"/>
						<polygon style="opacity:0.45;fill:#ED1C24;" points="342.694,-48.655 341.079,20.097 341.079,20.097 404.455,-10.175 						
							"/>
						<polygon style="opacity:0.25;fill:#ED1C24;" points="456.345,75.165 481.699,67.069 457.388,9.309 						"/>
						<polygon style="opacity:0.3;fill:#ED1C24;" points="457.388,9.309 407.042,25.861 456.345,75.165 456.345,75.165 
							457.388,9.309 						"/>
						<polygon style="opacity:0.35;fill:#ED1C24;" points="404.455,-10.175 407.042,25.861 407.042,25.861 457.388,9.309 						"/>
					</g>
					<g>
						<polygon style="opacity:0.3;fill:#ED1C24;" points="457.216,-24.314 457.216,-24.314 457.388,9.309 495.837,14.308 
							495.837,14.308 						"/>
						<polygon style="opacity:0.2;fill:#ED1C24;" points="495.837,14.308 495.837,14.308 481.699,67.069 534.459,52.93 
							534.459,52.93 						"/>
						<polygon style="opacity:0.35;fill:#ED1C24;" points="404.455,-10.175 404.455,-10.175 457.388,9.309 457.388,9.309 
							457.216,-24.314 						"/>
						<polygon style="opacity:0.25;fill:#ED1C24;" points="495.837,14.308 457.388,9.309 457.388,9.309 481.699,67.069 
							481.699,67.069 						"/>
					</g>
					<g>
						<polygon style="opacity:0.25;fill:#ED1C24;" points="509.976,-38.453 548.598,0.169 562.737,-52.592 509.976,-38.453 						
							"/>
						<polygon style="opacity:0.2;fill:#ED1C24;" points="601.359,-13.97 562.737,-52.592 562.737,-52.592 548.598,0.169 
							548.598,0.169 601.359,-13.97 						"/>
						<polygon style="opacity:0.15;fill:#ED1C24;" points="548.598,0.169 587.22,38.791 587.22,38.791 601.359,-13.97 						"/>
						<polygon style="opacity:0.1;fill:#ED1C24;" points="587.22,38.791 639.981,24.652 601.359,-13.97 601.359,-13.97 						"/>
					</g>
					<g>
						<polygon style="opacity:0.2;fill:#ED1C24;" points="534.459,52.93 548.598,0.169 495.837,14.308 						"/>
						<polygon style="opacity:0.15;fill:#ED1C24;" points="548.598,0.169 548.598,0.169 534.459,52.93 534.459,52.93 587.22,38.791 
													"/>
						<polygon style="opacity:0.3;fill:#ED1C24;" points="509.976,-38.453 457.216,-24.314 495.837,14.308 509.976,-38.453 						
							"/>
						<polygon style="opacity:0.25;fill:#ED1C24;" points="509.976,-38.453 495.837,14.308 495.837,14.308 548.598,0.169 
							548.598,0.169 						"/>
					</g>
					<g>
						<polygon style="opacity:0.05;fill:#ED1C24;" points="654.119,-28.109 692.741,10.513 706.88,-42.248 654.119,-28.109 						
							"/>
					</g>
					<g>
						<polygon style="opacity:0.1;fill:#ED1C24;" points="654.119,-28.109 601.359,-13.97 639.981,24.652 639.981,24.652 
							654.119,-28.109 						"/>
						<polygon style="opacity:0.05;fill:#ED1C24;" points="639.981,24.652 692.741,10.513 654.119,-28.109 						"/>
					</g>
				</g>
			</g>
			<g>
				<g>
					<g>
						<polygon style="opacity:0.2;fill:#ED1C24;" points="-39.359,549.505 -0.738,588.127 13.401,535.367 13.401,535.367 						"/>
						<polygon style="opacity:0.25;fill:#ED1C24;" points="-39.359,549.505 -39.359,549.505 13.401,535.367 -25.221,496.745 
							-25.221,496.745 						"/>
						<polygon style="opacity:0.1;fill:#ED1C24;" points="37.884,626.749 52.023,573.989 -0.738,588.127 						"/>
						<polygon style="opacity:0.15;fill:#ED1C24;" points="-0.738,588.127 -0.738,588.127 52.023,573.989 52.023,573.989 
							13.401,535.367 						"/>
					</g>
					<g>
						<polygon style="opacity:0.1;fill:#ED1C24;" points="-0.738,588.127 -0.738,588.127 -14.877,640.888 37.884,626.749 
							37.884,626.749 						"/>
						<polygon style="opacity:0.15;fill:#ED1C24;" points="-14.877,640.888 -14.877,640.888 -0.738,588.127 -53.498,602.267 						
							"/>
						<polygon style="opacity:0.2;fill:#ED1C24;" points="-39.359,549.505 -39.359,549.505 -53.499,602.266 -53.498,602.267 
							-0.738,588.127 -0.738,588.127 						"/>
					</g>
					<g>
						<polygon style="opacity:0.25;fill:#ED1C24;" points="13.401,535.367 27.54,482.606 -25.221,496.745 13.401,535.367 						"/>
						<polygon style="opacity:0.15;fill:#ED1C24;" points="13.401,535.367 52.023,573.989 66.162,521.228 13.401,535.367 						"/>
						<polygon style="opacity:0.2;fill:#ED1C24;" points="13.401,535.367 66.162,521.228 66.162,521.228 27.54,482.606 
							27.54,482.606 						"/>
						<polygon style="opacity:0.3;fill:#ED1C24;" points="-11.081,443.984 -25.221,496.745 -25.221,496.745 27.54,482.606 
							27.54,482.606 -11.081,443.984 						"/>
					</g>
					<g>
						<polygon style="opacity:0.35;fill:#ED1C24;" points="55.818,377.084 23.029,377.746 23.861,452.605 						"/>
						<polygon style="opacity:0.5;fill:#ED1C24;" points="-23.545,321.271 -35.564,352.602 40.967,342.435 40.967,342.434 
							-23.545,321.271 						"/>
						<polygon style="opacity:0.4;fill:#ED1C24;" points="23.029,377.746 23.029,377.746 55.818,377.084 55.818,377.084 
							40.967,342.435 40.967,342.435 						"/>
						<polygon style="opacity:0.25;fill:#ED1C24;" points="80.301,468.467 94.44,415.706 23.861,452.605 						"/>
						<polygon style="opacity:0.3;fill:#ED1C24;" points="23.861,452.605 23.861,452.605 94.44,415.706 94.44,415.706 
							55.818,377.084 55.818,377.084 						"/>
						<polygon style="opacity:0.45;fill:#ED1C24;" points="23.029,377.746 40.967,342.435 -35.564,352.602 -35.564,352.602 						
							"/>
					</g>
					<g>
						<polygon style="opacity:0.4;fill:#ED1C24;" points="23.029,377.746 -49.703,405.362 -11.082,443.984 						"/>
						<polygon style="opacity:0.2;fill:#ED1C24;" points="80.301,468.467 27.54,482.606 66.162,521.228 						"/>
						<polygon style="opacity:0.25;fill:#ED1C24;" points="23.861,452.605 27.54,482.606 27.54,482.606 80.301,468.467 
							80.301,468.467 23.861,452.605 						"/>
						<polygon style="opacity:0.35;fill:#ED1C24;" points="-11.082,443.984 -11.081,443.984 23.861,452.605 23.861,452.605 
							23.029,377.746 23.029,377.746 						"/>
						<polygon style="opacity:0.45;fill:#ED1C24;" points="-49.703,405.362 -49.703,405.362 23.029,377.746 23.029,377.746 
							-35.564,352.602 						"/>
						<polygon style="opacity:0.3;fill:#ED1C24;" points="27.54,482.606 23.861,452.605 -11.081,443.984 						"/>
					</g>
				</g>
			</g>
			<g>
				<g>
					<g>
						<polygon style="opacity:0.05;fill:#ED1C24;" points="372.382,292.251 425.143,278.112 386.521,239.49 						"/>
					</g>
					<g>
						<polygon style="opacity:0.05;fill:#ED1C24;" points="492.042,211.212 492.042,211.212 425.587,184.234 425.587,184.234 
							439.282,225.351 						"/>
						<polygon style="opacity:0.1;fill:#ED1C24;" points="439.282,225.351 425.587,184.234 390.211,207.693 439.282,225.351 						
							"/>
						<polygon style="opacity:0.15;fill:#ED1C24;" points="390.211,207.693 425.587,184.234 425.587,184.234 414.799,133.969 
							414.799,133.969 390.211,207.693 						"/>
					</g>
					<g>
						<polygon style="opacity:0.1;fill:#ED1C24;" points="390.211,207.693 390.211,207.693 386.521,239.49 439.282,225.351 						
							"/>
						<polygon style="opacity:0.05;fill:#ED1C24;" points="439.282,225.351 439.282,225.351 386.521,239.49 386.521,239.49 
							425.143,278.112 425.143,278.112 						"/>
					</g>
					<g>
						<polygon style="opacity:0.1;fill:#ED1C24;" points="534.459,52.93 542.728,83.283 573.081,91.552 						"/>
						<polygon style="opacity:0.05;fill:#ED1C24;" points="573.081,91.552 573.081,91.552 542.728,83.283 542.728,83.283 
							558.942,144.312 						"/>
						<polygon style="opacity:0.15;fill:#ED1C24;" points="534.459,52.93 534.459,52.93 481.698,67.069 542.728,83.283 
							542.728,83.283 						"/>
					</g>
					<g>
						<polygon style="opacity:0.2;fill:#ED1C24;" points="467.559,119.83 481.698,67.069 456.345,75.166 467.559,119.83 						"/>
						<polygon style="opacity:0.15;fill:#ED1C24;" points="542.728,83.283 481.698,67.069 481.698,67.069 467.559,119.83 						"/>
						<polygon style="opacity:0.05;fill:#ED1C24;" points="558.942,144.312 542.728,83.283 506.181,158.452 558.942,144.313 						
							"/>
						<polygon style="opacity:0.1;fill:#ED1C24;" points="506.181,158.452 506.181,158.452 542.728,83.283 542.728,83.283 
							467.559,119.83 467.559,119.83 						"/>
					</g>
					<g>
						<polygon style="opacity:0.15;fill:#ED1C24;" points="467.559,119.83 414.799,133.969 425.587,184.234 467.559,119.83 						
							"/>
						<polygon style="opacity:0.1;fill:#ED1C24;" points="506.181,158.452 467.559,119.83 425.587,184.234 425.587,184.234 						
							"/>
						<polygon style="opacity:0.2;fill:#ED1C24;" points="467.559,119.83 456.345,75.166 414.799,133.969 414.799,133.969 						"/>
						<polygon style="opacity:0.05;fill:#ED1C24;" points="506.181,158.452 425.587,184.234 492.042,211.212 506.181,158.452 						
							"/>
					</g>
					<g>
						<polygon style="opacity:0.1;fill:#ED1C24;" points="573.081,91.552 573.081,91.552 587.22,38.791 534.459,52.93 
							534.459,52.93 						"/>
						<polygon style="opacity:0.05;fill:#ED1C24;" points="625.842,77.413 587.22,38.791 587.22,38.791 573.081,91.552 						"/>
					</g>
					<g>
						<polygon style="opacity:0.05;fill:#ED1C24;" points="625.842,77.413 625.842,77.413 639.981,24.652 639.981,24.652 
							587.22,38.791 						"/>
					</g>
				</g>
			</g>
			<g>
				<g>
					<g>
						<polygon style="opacity:0.05;fill:#ED1C24;" points="37.884,626.75 119.89,619.371 52.023,573.989 						"/>
					</g>
					<g>
						<polygon style="opacity:0.05;fill:#ED1C24;" points="157.544,545.711 157.544,545.711 113.855,526.042 113.855,526.042 
							110.971,566.036 						"/>
						<polygon style="opacity:0.1;fill:#ED1C24;" points="110.971,566.036 113.855,526.042 66.162,521.228 110.971,566.036 						
							"/>
						<polygon style="opacity:0.15;fill:#ED1C24;" points="66.162,521.228 113.855,526.042 113.855,526.042 80.301,468.467 
							80.301,468.467 66.162,521.228 						"/>
					</g>
					<g>
						<polygon style="opacity:0.1;fill:#ED1C24;" points="66.162,521.228 66.162,521.228 52.023,573.989 110.971,566.036 						"/>
						<polygon style="opacity:0.05;fill:#ED1C24;" points="110.971,566.036 110.971,566.036 52.023,573.989 52.023,573.989 
							119.89,619.371 119.89,619.371 						"/>
					</g>
					<g>
						<polygon style="opacity:0.1;fill:#ED1C24;" points="182.231,397.515 167.79,438.059 226.215,413.682 						"/>
						<polygon style="opacity:0.05;fill:#ED1C24;" points="226.215,413.682 226.215,413.682 167.79,438.059 167.79,438.059 
							224.444,478.811 						"/>
						<polygon style="opacity:0.15;fill:#ED1C24;" points="182.231,397.515 182.231,397.515 129.859,437.402 167.79,438.059 
							167.79,438.059 						"/>
					</g>
					<g>
						<polygon style="opacity:0.2;fill:#ED1C24;" points="125.566,480.283 129.859,437.402 94.44,415.707 125.566,480.283 						"/>
						<polygon style="opacity:0.15;fill:#ED1C24;" points="167.79,438.059 129.859,437.402 129.859,437.402 125.566,480.283 						
							"/>
						<polygon style="opacity:0.05;fill:#ED1C24;" points="224.444,478.811 167.79,438.059 151.904,512.73 224.444,478.811 						
							"/>
						<polygon style="opacity:0.1;fill:#ED1C24;" points="151.904,512.73 151.904,512.73 167.79,438.059 167.79,438.059 
							125.566,480.283 125.566,480.283 						"/>
					</g>
					<g>
						<polygon style="opacity:0.15;fill:#ED1C24;" points="125.566,480.283 80.301,468.467 113.855,526.042 125.566,480.283 						
							"/>
						<polygon style="opacity:0.1;fill:#ED1C24;" points="151.904,512.73 125.566,480.283 113.855,526.042 113.855,526.042 						
							"/>
						<polygon style="opacity:0.2;fill:#ED1C24;" points="125.566,480.283 94.44,415.707 80.301,468.467 80.301,468.467 						"/>
						<polygon style="opacity:0.05;fill:#ED1C24;" points="151.904,512.73 113.855,526.042 157.544,545.711 151.904,512.73 						
							"/>
					</g>
					<g>
						<polygon style="opacity:0.1;fill:#ED1C24;" points="226.215,413.682 226.215,413.682 270.002,362.197 182.231,397.515 
							182.231,397.515 						"/>
						<polygon style="opacity:0.05;fill:#ED1C24;" points="291.344,411.911 270.002,362.197 270.002,362.197 226.215,413.682 						
							"/>
					</g>
					<g>
						<polygon style="opacity:0.05;fill:#ED1C24;" points="291.344,411.911 291.344,411.911 305.483,359.151 305.483,359.151 
							270.002,362.197 						"/>
					</g>
				</g>
			</g>
		</g>
		<g>
			<g>
				<g>
					<g>
						<polygon style="opacity:0.4;fill:#ED1C24;" points="1166.607,257.857 1145.71,194.109 1099.732,265.205 1099.732,265.205 
													"/>
						<polygon style="opacity:0.5;fill:#ED1C24;" points="1174.718,308.82 1222.954,271.353 1166.607,257.857 1174.718,308.82 
													"/>
						<polygon style="opacity:0.55;fill:#ED1C24;" points="1234.019,306.834 1222.954,271.353 1222.954,271.353 1174.718,308.82 
													"/>
						<polygon style="opacity:0.45;fill:#ED1C24;" points="1174.718,308.82 1166.607,257.857 1166.607,257.857 1099.732,265.205 
													"/>
						<polygon style="opacity:0.25;fill:#ED1C24;" points="1105.838,178.654 1068.039,191.169 1068.156,226.307 						"/>
						<polygon style="opacity:0.3;fill:#ED1C24;" points="1068.156,226.307 1145.71,194.109 1105.838,178.654 1105.838,178.654 
							1068.156,226.307 						"/>
						<polygon style="opacity:0.35;fill:#ED1C24;" points="1099.732,265.205 1145.71,194.109 1145.71,194.109 1068.156,226.307 
													"/>
					</g>
					<g>
						<polygon style="opacity:0.3;fill:#ED1C24;" points="1066.133,281.781 1066.133,281.781 1068.156,226.307 1004.005,248.196 
							1004.005,248.196 						"/>
						<polygon style="opacity:0.2;fill:#ED1C24;" points="1004.005,248.196 1004.005,248.196 1068.039,191.169 1009.256,199.817 
							1009.256,199.817 						"/>
						<polygon style="opacity:0.35;fill:#ED1C24;" points="1099.732,265.205 1099.732,265.205 1068.156,226.307 1068.156,226.307 
							1066.133,281.781 						"/>
						<polygon style="opacity:0.55;fill:#ED1C24;" points="1174.718,308.82 1128.753,354.785 1234.019,306.834 1234.019,306.834 
							1174.718,308.82 						"/>
						<polygon style="opacity:0.65;fill:#ED1C24;" points="1194.676,376.874 1254.186,381.478 1254.186,381.478 1234.019,306.834 
							1234.019,306.834 						"/>
						<polygon style="opacity:0.7;fill:#ED1C24;" points="1194.676,376.874 1233.298,415.496 1254.186,381.478 1194.676,376.874 
													"/>
						<polygon style="opacity:0.25;fill:#ED1C24;" points="1004.005,248.196 1068.156,226.307 1068.156,226.307 1068.039,191.169 
							1068.039,191.169 						"/>
						<polygon style="opacity:0.5;fill:#ED1C24;" points="1128.753,354.785 1128.753,354.785 1174.718,308.82 1117.432,299.631 
													"/>
						<polygon style="opacity:0.45;fill:#ED1C24;" points="1117.432,299.631 1174.718,308.82 1174.718,308.82 1099.732,265.205 
							1099.732,265.205 1117.432,299.631 						"/>
						<polygon style="opacity:0.4;fill:#ED1C24;" points="1117.432,299.631 1099.732,265.205 1066.133,281.781 1066.133,281.781 
													"/>
						<polygon style="opacity:0.6;fill:#ED1C24;" points="1194.676,376.874 1194.676,376.874 1234.019,306.834 1128.753,354.785 
							1128.753,354.785 						"/>
					</g>
					<g>
						<polygon style="opacity:0.6;fill:#ED1C24;" points="1065.632,415.079 1065.632,415.079 1108.046,447.571 1108.046,447.571 
							1117.12,407.843 1117.12,407.843 						"/>
						<polygon style="opacity:0.4;fill:#ED1C24;" points="1050.532,366.53 1050.532,366.53 1064.672,313.77 1005.897,342.017 
							1005.897,342.017 						"/>
						<polygon style="opacity:0.3;fill:#ED1C24;" points="1005.897,342.017 1005.897,342.017 1009.325,291.872 979.127,333.028 
							979.127,333.028 						"/>
						<polygon style="opacity:0.25;fill:#ED1C24;" points="1009.325,291.872 977.618,274.583 979.127,333.028 1009.325,291.872 
													"/>
						<polygon style="opacity:0.35;fill:#ED1C24;" points="1005.897,342.017 1064.672,313.77 1064.671,313.769 1009.325,291.872 
							1009.325,291.872 						"/>
						<polygon style="opacity:0.55;fill:#ED1C24;" points="1065.632,415.079 1117.12,407.843 1089.882,380.605 1089.882,380.605 
													"/>
						<polygon style="opacity:0.5;fill:#ED1C24;" points="1050.532,366.53 1050.532,366.53 1065.632,415.079 1065.632,415.079 
							1089.882,380.605 						"/>
						<polygon style="opacity:0.45;fill:#ED1C24;" points="1089.882,380.605 1089.882,380.605 1064.672,313.77 1064.672,313.77 
							1050.532,366.53 						"/>
						<polygon style="opacity:0.8;fill:#ED1C24;" points="1166.398,482.396 1166.398,482.396 1176.283,525.731 1176.283,525.731 
							1219.159,468.257 						"/>
						<polygon style="opacity:0.85;fill:#ED1C24;" points="1219.159,468.257 1176.283,525.731 1217.562,523.039 1219.159,468.257 
													"/>
						<polygon style="opacity:0.9;fill:#ED1C24;" points="1217.562,523.039 1176.283,525.731 1176.283,525.731 1241.637,567.07 
							1241.637,567.07 1217.562,523.039 						"/>
						<polygon style="opacity:0.2;fill:#ED1C24;" points="934.667,250.665 979.127,333.028 979.127,333.028 977.618,274.583 
							977.618,274.583 934.667,250.665 						"/>
						<polygon style="opacity:0.15;fill:#ED1C24;" points="977.618,274.583 967.782,226.159 967.782,226.159 934.667,250.665 						
							"/>
						<polygon style="opacity:0.1;fill:#ED1C24;" points="967.782,226.159 904.771,224.856 934.667,250.665 934.667,250.665 						
							"/>
						<polygon style="opacity:0.7;fill:#ED1C24;" points="1108.046,447.571 1108.046,447.571 1166.398,482.396 1166.398,482.396 
							1161.95,416.355 						"/>
						<polygon style="opacity:0.75;fill:#ED1C24;" points="1166.398,482.396 1219.159,468.257 1219.159,468.257 1161.95,416.355 
							1161.95,416.355 						"/>
						<polygon style="opacity:0.65;fill:#ED1C24;" points="1108.046,447.571 1161.95,416.355 1161.95,416.355 1117.12,407.843 
													"/>
					</g>
					<g>
						<polygon style="opacity:0.55;fill:#ED1C24;" points="1117.12,407.843 1117.12,407.843 1128.753,354.785 1128.753,354.785 
							1089.882,380.605 						"/>
						<polygon style="opacity:0.4;fill:#ED1C24;" points="1117.432,299.631 1117.432,299.631 1066.133,281.781 1064.671,313.769 
							1064.672,313.77 						"/>
						<polygon style="opacity:0.5;fill:#ED1C24;" points="1089.882,380.605 1089.882,380.605 1128.753,354.785 1117.432,299.631 
							1117.432,299.631 						"/>
						<polygon style="opacity:0.75;fill:#ED1C24;" points="1233.298,415.496 1161.95,416.355 1219.159,468.257 						"/>
						<polygon style="opacity:0.6;fill:#ED1C24;" points="1194.676,376.874 1128.753,354.785 1117.12,407.843 						"/>
						<polygon style="opacity:0.2;fill:#ED1C24;" points="1009.256,199.817 977.618,274.583 1004.005,248.196 						"/>
						<polygon style="opacity:0.45;fill:#ED1C24;" points="1117.432,299.631 1064.672,313.77 1089.882,380.605 						"/>
						<polygon style="opacity:0.15;fill:#ED1C24;" points="977.618,274.583 977.618,274.583 1009.256,199.817 1009.256,199.817 
							967.782,226.159 						"/>
						<polygon style="opacity:0.7;fill:#ED1C24;" points="1161.95,416.355 1161.95,416.355 1233.298,415.496 1233.298,415.496 
							1194.676,376.874 						"/>
						<polygon style="opacity:0.35;fill:#ED1C24;" points="1064.671,313.769 1066.133,281.781 1066.133,281.781 1009.325,291.872 
													"/>
						<polygon style="opacity:0.3;fill:#ED1C24;" points="1009.325,291.872 1066.133,281.781 1004.005,248.196 1009.325,291.872 
													"/>
						<polygon style="opacity:0.25;fill:#ED1C24;" points="1009.325,291.872 1004.005,248.196 1004.005,248.196 977.618,274.583 
							977.618,274.583 						"/>
						<polygon style="opacity:0.65;fill:#ED1C24;" points="1117.12,407.843 1117.12,407.843 1161.95,416.355 1194.676,376.874 
							1194.676,376.874 						"/>
					</g>
					<g>
						<polygon style="opacity:0.4;fill:#ED1C24;" points="926.173,421.741 890.55,451.597 960.11,443.358 						"/>
						<polygon style="opacity:0.45;fill:#ED1C24;" points="960.11,443.358 960.11,443.358 890.55,451.597 890.55,451.597 
							969.494,486.191 						"/>
						<polygon style="opacity:0.6;fill:#ED1C24;" points="1022.254,472.052 992.814,548.038 992.814,548.038 1051.046,489.807 
							1051.046,489.807 						"/>
						<polygon style="opacity:0.35;fill:#ED1C24;" points="890.55,451.597 926.173,421.741 926.173,421.741 869.469,395.124 
							869.469,395.124 890.55,451.597 						"/>
						<polygon style="opacity:0.2;fill:#ED1C24;" points="885.508,363.236 853.815,324.993 836.382,391.606 836.382,391.606 						
							"/>
						<polygon style="opacity:0.25;fill:#ED1C24;" points="885.508,363.236 885.508,363.236 836.382,391.606 869.469,395.124 
							869.469,395.124 						"/>
						<polygon style="opacity:0.85;fill:#ED1C24;" points="1089.777,650.825 1138.12,587.917 1085.359,602.056 						"/>
						<polygon style="opacity:0.65;fill:#ED1C24;" points="1046.738,563.434 1051.046,489.807 992.814,548.038 						"/>
						<polygon style="opacity:0.1;fill:#ED1C24;" points="829.146,278.943 802.743,360.176 853.815,324.993 						"/>
						<polygon style="opacity:0.55;fill:#ED1C24;" points="969.494,486.191 992.814,548.038 1022.254,472.052 1022.254,472.052 
													"/>
						<polygon style="opacity:0.5;fill:#ED1C24;" points="960.11,443.358 969.494,486.191 969.494,486.191 1022.254,472.052 						
							"/>
						<polygon style="opacity:0.3;fill:#ED1C24;" points="869.469,395.124 926.173,421.741 885.508,363.236 						"/>
						<polygon style="opacity:0.8;fill:#ED1C24;" points="1085.359,602.056 1085.359,602.056 1138.12,587.917 1138.12,587.917 
							1093.359,567.797 						"/>
						<polygon style="opacity:0.75;fill:#ED1C24;" points="1093.359,567.797 1046.738,563.434 1085.359,602.056 1093.359,567.797 
													"/>
						<polygon style="opacity:0.7;fill:#ED1C24;" points="1051.046,489.807 1051.046,489.807 1046.738,563.434 1046.738,563.434 
							1093.359,567.797 						"/>
						<polygon style="opacity:0.9;fill:#ED1C24;" points="1089.777,650.825 1089.777,650.825 1134.614,640.036 1138.12,587.917 
							1138.12,587.917 						"/>
						<polygon style="opacity:0.15;fill:#ED1C24;" points="853.815,324.993 853.815,324.993 802.743,360.176 802.743,360.176 
							836.382,391.606 						"/>
					</g>
					<g>
						<polygon style="opacity:0.35;fill:#ED1C24;" points="967.286,400.679 934.072,350.42 934.072,350.42 926.173,421.741 
							967.286,400.679 						"/>
						<polygon style="opacity:0.4;fill:#ED1C24;" points="960.11,443.357 967.286,400.679 926.173,421.741 926.173,421.741 
							960.11,443.358 						"/>
						<polygon style="opacity:0.65;fill:#ED1C24;" points="1075.015,457.913 1075.015,457.913 1051.046,489.807 1051.046,489.807 
							1113.637,496.535 1113.637,496.535 						"/>
						<polygon style="opacity:0.3;fill:#ED1C24;" points="926.173,421.741 926.173,421.741 934.072,350.42 885.508,363.236 
							885.508,363.236 						"/>
						<polygon style="opacity:0.25;fill:#ED1C24;" points="934.072,350.42 931.572,320.629 885.508,363.236 934.072,350.42 						
							"/>
						<polygon style="opacity:0.7;fill:#ED1C24;" points="1093.359,567.797 1093.359,567.797 1113.637,496.535 1051.046,489.807 
													"/>
						<polygon style="opacity:0.5;fill:#ED1C24;" points="1022.254,472.052 1012.706,415.788 960.11,443.357 960.11,443.358 
							1022.254,472.052 						"/>
						<polygon style="opacity:0.55;fill:#ED1C24;" points="1012.706,415.788 1012.706,415.788 1022.254,472.052 1075.015,457.913 
							1075.015,457.913 						"/>
						<polygon style="opacity:0.6;fill:#ED1C24;" points="1022.254,472.052 1051.046,489.807 1075.015,457.913 1022.254,472.052 
													"/>
						<polygon style="opacity:0.45;fill:#ED1C24;" points="1012.706,415.788 967.286,400.679 967.286,400.679 960.11,443.357 
							1012.706,415.788 						"/>
						<polygon style="opacity:0.1;fill:#ED1C24;" points="853.815,324.993 853.815,324.993 866.388,282.735 829.146,278.943 
							829.146,278.943 						"/>
						<polygon style="opacity:0.05;fill:#ED1C24;" points="866.388,282.735 843.285,226.182 829.146,278.943 866.388,282.735 						
							"/>
						<polygon style="opacity:0.95;fill:#ED1C24;" points="1177.503,566.561 1134.614,640.036 1179.785,623.239 1177.503,566.561 
													"/>
						<polygon style="opacity:0.9;fill:#ED1C24;" points="1138.12,587.917 1134.614,640.036 1134.614,640.036 1177.503,566.561 
													"/>
						<polygon style="opacity:0.75;fill:#ED1C24;" points="1113.637,496.535 1113.637,496.535 1093.359,567.797 1129.037,532.119 
							1129.037,532.119 						"/>
						<polygon style="opacity:0.8;fill:#ED1C24;" points="1093.359,567.797 1138.12,587.917 1129.037,532.119 1093.359,567.797 
													"/>
						<polygon style="opacity:0.15;fill:#ED1C24;" points="866.388,282.735 866.388,282.735 853.815,324.993 931.571,320.629 						
							"/>
						<polygon style="opacity:0.2;fill:#ED1C24;" points="885.508,363.236 885.508,363.236 931.572,320.629 931.571,320.629 
							853.815,324.993 853.815,324.993 						"/>
						<polygon style="opacity:0.85;fill:#ED1C24;" points="1129.037,532.119 1129.037,532.119 1138.12,587.917 1138.12,587.917 
							1177.503,566.561 1177.503,566.561 						"/>
					</g>
					<g>
						<polygon style="opacity:0.35;fill:#ED1C24;" points="967.286,400.679 1005.897,342.017 1005.897,342.017 934.072,350.42 
													"/>
						<polygon style="opacity:0.3;fill:#ED1C24;" points="1005.897,342.017 979.127,333.028 934.072,350.42 934.072,350.42 						
							"/>
						<polygon style="opacity:0.7;fill:#ED1C24;" points="1113.637,496.535 1166.398,482.396 1108.046,447.571 1113.637,496.535 
													"/>
						<polygon style="opacity:0.65;fill:#ED1C24;" points="1075.015,457.913 1113.637,496.535 1108.046,447.571 1108.046,447.571 
													"/>
						<polygon style="opacity:0.25;fill:#ED1C24;" points="979.127,333.028 979.127,333.028 931.572,320.629 931.572,320.629 
							934.072,350.42 						"/>
						<polygon style="opacity:0.2;fill:#ED1C24;" points="934.667,250.665 931.572,320.629 979.127,333.028 						"/>
						<polygon style="opacity:0.5;fill:#ED1C24;" points="1012.706,415.788 1065.632,415.079 1050.532,366.53 1012.706,415.788 
													"/>
						<polygon style="opacity:0.55;fill:#ED1C24;" points="1012.706,415.788 1075.015,457.913 1065.632,415.079 1065.632,415.079 
													"/>
						<polygon style="opacity:0.6;fill:#ED1C24;" points="1075.015,457.913 1108.046,447.571 1065.632,415.079 1075.015,457.913 
													"/>
						<polygon style="opacity:0.4;fill:#ED1C24;" points="1050.532,366.53 1005.897,342.017 967.286,400.679 967.286,400.679 						
							"/>
						<polygon style="opacity:0.45;fill:#ED1C24;" points="1012.706,415.788 1050.532,366.53 1050.532,366.53 967.286,400.679 
													"/>
						<polygon style="opacity:0.1;fill:#ED1C24;" points="866.388,282.735 934.667,250.665 904.771,224.856 904.771,224.856 
							866.388,282.735 						"/>
						<polygon style="opacity:0.05;fill:#ED1C24;" points="904.771,224.856 843.285,226.182 866.388,282.735 						"/>
						<polygon style="opacity:0.9;fill:#ED1C24;" points="1177.503,566.561 1241.637,567.07 1176.283,525.731 1177.503,566.561 
													"/>
						<polygon style="opacity:0.85;fill:#ED1C24;" points="1129.037,532.119 1177.503,566.561 1176.283,525.731 1176.283,525.731 
													"/>
						<polygon style="opacity:0.95;fill:#ED1C24;" points="1177.503,566.561 1179.785,623.239 1241.637,567.07 1241.637,567.07 
													"/>
						<polygon style="opacity:0.75;fill:#ED1C24;" points="1113.637,496.535 1129.037,532.119 1166.398,482.396 1166.398,482.396 
													"/>
						<polygon style="opacity:0.8;fill:#ED1C24;" points="1129.037,532.119 1176.283,525.731 1166.398,482.396 1129.037,532.119 
													"/>
						<polygon style="opacity:0.15;fill:#ED1C24;" points="931.572,320.629 934.667,250.665 934.667,250.665 866.388,282.735 
							931.571,320.629 						"/>
					</g>
					<g>
						<polygon style="opacity:0.55;fill:#ED1C24;" points="969.494,486.191 969.494,486.191 931.808,557.216 992.814,548.038 
							992.814,548.038 						"/>
						<polygon style="opacity:0.45;fill:#ED1C24;" points="890.55,451.597 926.152,502.342 969.494,486.191 969.494,486.191 						
							"/>
						<polygon style="opacity:0.5;fill:#ED1C24;" points="931.808,557.216 969.494,486.191 926.152,502.342 926.152,502.342 
							931.808,557.216 						"/>
						<polygon style="opacity:0.35;fill:#ED1C24;" points="869.469,395.124 855.517,470.833 890.55,451.597 						"/>
						<polygon style="opacity:0.7;fill:#ED1C24;" points="999.505,604.904 1032.599,616.195 1046.738,563.434 999.505,604.904 
													"/>
						<polygon style="opacity:0.65;fill:#ED1C24;" points="992.814,548.038 992.814,548.038 999.505,604.904 1046.738,563.434 
							1046.738,563.434 						"/>
						<polygon style="opacity:0.4;fill:#ED1C24;" points="890.55,451.597 890.55,451.597 855.517,470.833 855.518,470.833 
							926.152,502.342 926.152,502.342 						"/>
						<polygon style="opacity:0.25;fill:#ED1C24;" points="836.382,391.606 839.49,423.086 869.469,395.124 836.382,391.606 						
							"/>
						<polygon style="opacity:0.6;fill:#ED1C24;" points="931.808,557.216 999.505,604.904 999.505,604.904 992.814,548.038 
							931.808,557.216 						"/>
						<polygon style="opacity:0.75;fill:#ED1C24;" points="1085.359,602.056 1046.738,563.434 1046.738,563.434 1032.599,616.195 
							1032.599,616.195 1085.359,602.056 						"/>
						<polygon style="opacity:0.85;fill:#ED1C24;" points="1085.359,602.056 1085.359,602.056 1057.536,651.287 1089.777,650.825 
							1089.777,650.825 						"/>
						<polygon style="opacity:0.8;fill:#ED1C24;" points="1032.599,616.195 1057.536,651.287 1057.536,651.287 1085.359,602.056 
													"/>
						<polygon style="opacity:0.15;fill:#ED1C24;" points="836.382,391.606 802.743,360.176 767.261,395.658 836.382,391.606 						
							"/>
						<polygon style="opacity:0.2;fill:#ED1C24;" points="836.382,391.606 767.261,395.658 767.261,395.658 839.49,423.086 
							839.49,423.086 						"/>
						<polygon style="opacity:0.3;fill:#ED1C24;" points="855.517,470.833 869.469,395.124 869.469,395.124 839.49,423.086 
							839.49,423.086 855.517,470.833 						"/>
					</g>
					<g>
						<polygon style="opacity:0.35;fill:#ED1C24;" points="810.399,561.244 863.972,514.469 807.336,493.862 						"/>
						<polygon style="opacity:0.5;fill:#ED1C24;" points="888.455,605.851 887.63,574.156 838.406,605.977 838.407,605.977 
							888.455,605.851 						"/>
						<polygon style="opacity:0.4;fill:#ED1C24;" points="863.973,514.469 863.972,514.469 810.399,561.244 810.399,561.244 
							838.406,605.977 838.406,605.977 						"/>
						<polygon style="opacity:0.25;fill:#ED1C24;" points="786.729,437.225 761.498,501.077 807.336,493.862 						"/>
						<polygon style="opacity:0.3;fill:#ED1C24;" points="807.336,493.862 807.336,493.862 761.498,501.077 761.498,501.077 
							810.399,561.244 810.399,561.244 						"/>
						<polygon style="opacity:0.6;fill:#ED1C24;" points="948.165,615.386 888.455,605.851 888.455,605.851 927.077,644.473 
							927.077,644.473 						"/>
						<polygon style="opacity:0.55;fill:#ED1C24;" points="887.63,574.156 887.63,574.156 888.455,605.851 948.165,615.386 
							948.165,615.386 						"/>
						<polygon style="opacity:0.45;fill:#ED1C24;" points="863.973,514.469 838.406,605.977 887.63,574.156 887.63,574.156 						
							"/>
					</g>
					<g>
						<polygon style="opacity:0.5;fill:#ED1C24;" points="926.152,502.342 887.63,574.156 887.63,574.156 931.808,557.216 						"/>
						<polygon style="opacity:0.55;fill:#ED1C24;" points="931.808,557.216 887.63,574.156 948.165,615.386 931.808,557.216 						
							"/>
						<polygon style="opacity:0.6;fill:#ED1C24;" points="931.808,557.216 948.165,615.386 948.165,615.386 999.505,604.904 						
							"/>
						<polygon style="opacity:0.65;fill:#ED1C24;" points="948.165,615.386 974.686,647.883 999.505,604.904 999.505,604.904 						
							"/>
						<polygon style="opacity:0.4;fill:#ED1C24;" points="863.972,514.469 926.152,502.342 855.518,470.833 						"/>
						<polygon style="opacity:0.2;fill:#ED1C24;" points="786.729,437.225 839.49,423.086 767.261,395.658 						"/>
						<polygon style="opacity:0.25;fill:#ED1C24;" points="807.336,493.862 839.49,423.086 839.49,423.086 786.729,437.225 
							786.729,437.225 807.336,493.862 						"/>
						<polygon style="opacity:0.7;fill:#ED1C24;" points="999.505,604.904 974.686,647.883 974.686,647.883 1032.599,616.195 
							1032.599,616.195 						"/>
						<polygon style="opacity:0.35;fill:#ED1C24;" points="855.518,470.833 855.517,470.833 807.336,493.862 807.336,493.862 
							863.972,514.469 863.972,514.469 						"/>
						<polygon style="opacity:0.45;fill:#ED1C24;" points="926.152,502.342 926.152,502.342 863.972,514.469 863.973,514.469 
							887.63,574.156 						"/>
						<polygon style="opacity:0.3;fill:#ED1C24;" points="839.49,423.086 807.336,493.862 855.517,470.833 						"/>
					</g>
				</g>
			</g>
			<g>
				<g>
					<g>
						<polygon style="opacity:0.4;fill:#ED1C24;" points="838.406,605.977 810.399,561.244 772.478,584.894 772.478,584.894 						
							"/>
						<polygon style="opacity:0.5;fill:#ED1C24;" points="822.02,639.765 888.455,605.851 838.406,605.977 822.02,639.765 						"/>
						<polygon style="opacity:0.45;fill:#ED1C24;" points="822.02,639.765 838.406,605.977 838.406,605.977 772.478,584.894 						
							"/>
						<polygon style="opacity:0.25;fill:#ED1C24;" points="761.498,501.078 710.071,517.917 764.779,529.684 						"/>
						<polygon style="opacity:0.3;fill:#ED1C24;" points="764.779,529.684 810.399,561.244 761.498,501.078 761.498,501.078 
							764.779,529.684 						"/>
						<polygon style="opacity:0.35;fill:#ED1C24;" points="772.478,584.894 810.399,561.244 810.399,561.244 764.779,529.684 						
							"/>
					</g>
					<g>
						<polygon style="opacity:0.3;fill:#ED1C24;" points="722.366,607.01 722.366,607.01 764.779,529.684 705.69,556.886 
							705.69,556.886 						"/>
						<polygon style="opacity:0.2;fill:#ED1C24;" points="705.69,556.886 705.69,556.886 710.071,517.917 646.878,534.957 
							646.878,534.957 						"/>
						<polygon style="opacity:0.35;fill:#ED1C24;" points="772.478,584.894 772.478,584.894 764.779,529.684 764.779,529.684 
							722.366,607.01 						"/>
						<polygon style="opacity:0.25;fill:#ED1C24;" points="705.69,556.886 764.779,529.684 764.779,529.684 710.071,517.917 
							710.071,517.917 						"/>
						<polygon style="opacity:0.45;fill:#ED1C24;" points="782.934,634.129 822.02,639.765 822.02,639.765 772.478,584.894 
							772.478,584.894 782.934,634.129 						"/>
						<polygon style="opacity:0.4;fill:#ED1C24;" points="782.934,634.129 772.478,584.894 722.366,607.01 722.366,607.011 						
							"/>
					</g>
					<g>
						<polygon style="opacity:0.25;fill:#ED1C24;" points="691.552,609.646 652.93,571.024 638.791,623.785 691.552,609.646 						
							"/>
						<polygon style="opacity:0.2;fill:#ED1C24;" points="600.169,585.164 638.791,623.785 638.791,623.785 652.93,571.024 
							652.93,571.024 600.169,585.164 						"/>
						<polygon style="opacity:0.15;fill:#ED1C24;" points="652.93,571.024 614.308,532.403 614.308,532.403 600.169,585.164 						
							"/>
						<polygon style="opacity:0.1;fill:#ED1C24;" points="614.308,532.403 561.547,546.542 600.169,585.163 600.169,585.164 						
							"/>
					</g>
					<g>
						<polygon style="opacity:0.2;fill:#ED1C24;" points="646.878,534.957 652.93,571.024 705.69,556.886 						"/>
						<polygon style="opacity:0.15;fill:#ED1C24;" points="652.93,571.024 652.93,571.024 646.878,534.957 646.878,534.957 
							614.308,532.403 						"/>
						<polygon style="opacity:0.3;fill:#ED1C24;" points="691.552,609.646 722.366,607.01 705.69,556.886 691.552,609.646 						"/>
						<polygon style="opacity:0.25;fill:#ED1C24;" points="691.552,609.646 705.69,556.886 705.69,556.886 652.93,571.024 
							652.93,571.024 						"/>
					</g>
					<g>
						<polygon style="opacity:0.05;fill:#ED1C24;" points="547.408,599.302 508.787,560.681 494.648,613.441 547.408,599.302 						
							"/>
					</g>
					<g>
						<polygon style="opacity:0.2;fill:#ED1C24;" points="600.169,585.164 586.03,637.924 638.791,623.785 						"/>
						<polygon style="opacity:0.1;fill:#ED1C24;" points="547.408,599.302 600.169,585.163 561.547,546.542 561.547,546.542 
							547.408,599.302 						"/>
						<polygon style="opacity:0.05;fill:#ED1C24;" points="561.547,546.542 508.787,560.681 547.408,599.302 						"/>
						<polygon style="opacity:0.15;fill:#ED1C24;" points="586.03,637.924 600.169,585.164 600.169,585.163 547.408,599.302 
							586.03,637.924 						"/>
					</g>
				</g>
			</g>
			<g>
				<g>
					<g>
						<polygon style="opacity:0.2;fill:#ED1C24;" points="1240.887,21.688 1202.266,-16.934 1188.127,35.827 1188.127,35.827 						
							"/>
						<polygon style="opacity:0.25;fill:#ED1C24;" points="1240.887,21.688 1240.887,21.688 1188.127,35.827 1226.749,74.449 
							1226.749,74.449 						"/>
						<polygon style="opacity:0.1;fill:#ED1C24;" points="1163.644,-55.555 1149.505,-2.795 1202.266,-16.934 						"/>
						<polygon style="opacity:0.15;fill:#ED1C24;" points="1202.266,-16.934 1202.266,-16.934 1149.505,-2.795 1149.505,-2.795 
							1188.127,35.827 						"/>
					</g>
					<g>
						<polygon style="opacity:0.25;fill:#ED1C24;" points="1188.127,35.827 1173.988,88.588 1226.749,74.449 1188.127,35.827 						
							"/>
						<polygon style="opacity:0.15;fill:#ED1C24;" points="1188.127,35.827 1149.505,-2.795 1135.366,49.966 1188.127,35.827 						
							"/>
						<polygon style="opacity:0.2;fill:#ED1C24;" points="1188.127,35.827 1135.366,49.966 1135.366,49.966 1173.988,88.588 
							1173.988,88.588 						"/>
						<polygon style="opacity:0.3;fill:#ED1C24;" points="1212.609,127.21 1226.749,74.449 1226.749,74.449 1173.988,88.588 
							1173.988,88.588 1212.609,127.21 						"/>
					</g>
					<g>
						<polygon style="opacity:0.35;fill:#ED1C24;" points="1145.71,194.109 1198.471,179.97 1137.171,143.781 						"/>
						<polygon style="opacity:0.5;fill:#ED1C24;" points="1222.953,271.353 1237.092,218.592 1166.607,257.857 1166.607,257.857 
							1222.953,271.353 						"/>
						<polygon style="opacity:0.4;fill:#ED1C24;" points="1198.471,179.97 1198.471,179.97 1145.71,194.109 1145.71,194.109 
							1166.607,257.857 1166.607,257.857 						"/>
						<polygon style="opacity:0.25;fill:#ED1C24;" points="1103.74,95.715 1105.838,178.654 1137.171,143.781 						"/>
						<polygon style="opacity:0.3;fill:#ED1C24;" points="1137.171,143.781 1137.171,143.781 1105.838,178.654 1105.838,178.654 
							1145.71,194.109 1145.71,194.109 						"/>
						<polygon style="opacity:0.45;fill:#ED1C24;" points="1198.471,179.97 1166.607,257.857 1237.092,218.592 1237.092,218.592 
													"/>
					</g>
					<g>
						<polygon style="opacity:0.4;fill:#ED1C24;" points="1198.471,179.97 1251.231,165.831 1212.61,127.21 						"/>
						<polygon style="opacity:0.2;fill:#ED1C24;" points="1103.74,95.715 1173.988,88.588 1135.366,49.966 						"/>
						<polygon style="opacity:0.25;fill:#ED1C24;" points="1137.171,143.781 1173.988,88.588 1173.988,88.588 1103.74,95.715 
							1103.74,95.715 1137.171,143.781 						"/>
						<polygon style="opacity:0.35;fill:#ED1C24;" points="1212.61,127.21 1212.609,127.21 1137.171,143.781 1137.171,143.781 
							1198.471,179.97 1198.471,179.97 						"/>
						<polygon style="opacity:0.45;fill:#ED1C24;" points="1251.231,165.831 1251.231,165.831 1198.471,179.97 1198.471,179.97 
							1237.092,218.592 						"/>
						<polygon style="opacity:0.3;fill:#ED1C24;" points="1173.988,88.588 1137.171,143.781 1212.609,127.21 						"/>
					</g>
				</g>
			</g>
			<g>
				<g>
					<g>
						<polygon style="opacity:0.05;fill:#ED1C24;" points="829.146,278.943 776.385,293.082 802.743,360.176 						"/>
					</g>
					<g>
						<polygon style="opacity:0.05;fill:#ED1C24;" points="709.486,359.981 709.486,359.981 730.706,448.102 730.706,448.102 
							762.246,345.842 						"/>
						<polygon style="opacity:0.1;fill:#ED1C24;" points="762.246,345.842 730.706,448.102 767.261,395.658 762.246,345.842 						
							"/>
						<polygon style="opacity:0.15;fill:#ED1C24;" points="767.261,395.658 730.706,448.102 730.706,448.102 786.729,437.225 
							786.729,437.225 767.261,395.658 						"/>
					</g>
					<g>
						<polygon style="opacity:0.1;fill:#ED1C24;" points="767.261,395.658 767.261,395.658 802.743,360.176 762.246,345.842 						
							"/>
						<polygon style="opacity:0.05;fill:#ED1C24;" points="762.246,345.842 762.246,345.842 802.743,360.176 802.743,360.176 
							776.385,293.082 776.385,293.082 						"/>
					</g>
					<g>
						<polygon style="opacity:0.1;fill:#ED1C24;" points="646.878,534.956 677.434,485.485 633.098,492.651 						"/>
						<polygon style="opacity:0.05;fill:#ED1C24;" points="633.098,492.651 633.098,492.651 677.434,485.485 677.434,485.485 
							642.586,426.881 						"/>
						<polygon style="opacity:0.15;fill:#ED1C24;" points="646.878,534.956 646.878,534.956 710.071,517.917 677.434,485.485 
							677.434,485.485 						"/>
					</g>
					<g>
						<polygon style="opacity:0.2;fill:#ED1C24;" points="723.297,482.749 710.071,517.917 761.498,501.077 723.297,482.749 						
							"/>
						<polygon style="opacity:0.15;fill:#ED1C24;" points="677.434,485.485 710.071,517.917 710.071,517.917 723.297,482.749 						
							"/>
						<polygon style="opacity:0.05;fill:#ED1C24;" points="642.586,426.881 677.434,485.485 695.347,412.742 642.586,426.881 						
							"/>
						<polygon style="opacity:0.1;fill:#ED1C24;" points="695.347,412.742 695.347,412.742 677.434,485.485 677.434,485.485 
							723.297,482.749 723.297,482.749 						"/>
					</g>
					<g>
						<polygon style="opacity:0.15;fill:#ED1C24;" points="723.297,482.749 786.729,437.225 730.706,448.102 723.297,482.749 						
							"/>
						<polygon style="opacity:0.1;fill:#ED1C24;" points="695.347,412.742 723.297,482.749 730.706,448.102 730.706,448.102 						
							"/>
						<polygon style="opacity:0.2;fill:#ED1C24;" points="723.297,482.749 761.498,501.077 786.729,437.225 786.729,437.225 						
							"/>
						<polygon style="opacity:0.05;fill:#ED1C24;" points="695.347,412.742 730.706,448.102 709.486,359.981 695.347,412.742 						
							"/>
					</g>
					<g>
						<polygon style="opacity:0.1;fill:#ED1C24;" points="633.098,492.651 633.098,492.651 614.308,532.403 646.878,534.956 
							646.878,534.956 						"/>
						<polygon style="opacity:0.05;fill:#ED1C24;" points="575.686,493.781 614.308,532.403 614.308,532.403 633.098,492.651 						
							"/>
					</g>
					<g>
						<polygon style="opacity:0.05;fill:#ED1C24;" points="575.686,493.781 575.686,493.781 561.547,546.541 561.547,546.541 
							614.308,532.403 						"/>
					</g>
				</g>
			</g>
			<g>
				<g>
					<g>
						<polygon style="opacity:0.05;fill:#ED1C24;" points="1163.644,-55.556 1110.883,-41.417 1149.505,-2.795 						"/>
					</g>
					<g>
						<polygon style="opacity:0.05;fill:#ED1C24;" points="1043.984,25.483 1043.984,25.483 1082.606,64.105 1082.606,64.105 
							1096.745,11.344 						"/>
						<polygon style="opacity:0.1;fill:#ED1C24;" points="1096.745,11.344 1082.606,64.105 1135.366,49.966 1096.745,11.344 						
							"/>
						<polygon style="opacity:0.15;fill:#ED1C24;" points="1135.366,49.966 1082.606,64.105 1082.606,64.105 1103.741,95.715 
							1103.741,95.715 1135.366,49.966 						"/>
					</g>
					<g>
						<polygon style="opacity:0.1;fill:#ED1C24;" points="1135.366,49.966 1135.366,49.966 1149.505,-2.795 1096.745,11.344 						
							"/>
						<polygon style="opacity:0.05;fill:#ED1C24;" points="1096.745,11.344 1096.745,11.344 1149.505,-2.795 1149.505,-2.795 
							1110.883,-41.417 1110.883,-41.417 						"/>
					</g>
					<g>
						<polygon style="opacity:0.1;fill:#ED1C24;" points="1009.256,199.817 1010.31,159.059 962.945,145.143 						"/>
						<polygon style="opacity:0.05;fill:#ED1C24;" points="962.945,145.143 962.945,145.143 1010.31,159.059 1010.31,159.059 
							977.084,92.383 						"/>
						<polygon style="opacity:0.15;fill:#ED1C24;" points="1009.256,199.817 1009.256,199.817 1068.039,191.17 1010.31,159.059 
							1010.31,159.059 						"/>
					</g>
					<g>
						<polygon style="opacity:0.2;fill:#ED1C24;" points="1047.889,142.268 1068.039,191.17 1105.838,178.653 1047.889,142.268 
													"/>
						<polygon style="opacity:0.15;fill:#ED1C24;" points="1010.31,159.059 1068.039,191.17 1068.039,191.17 1047.889,142.268 
													"/>
						<polygon style="opacity:0.05;fill:#ED1C24;" points="977.084,92.383 1010.31,159.059 1029.845,78.244 977.084,92.382 						
							"/>
						<polygon style="opacity:0.1;fill:#ED1C24;" points="1029.845,78.244 1029.845,78.244 1010.31,159.059 1010.31,159.059 
							1047.889,142.268 1047.889,142.268 						"/>
					</g>
					<g>
						<polygon style="opacity:0.15;fill:#ED1C24;" points="1047.889,142.268 1103.741,95.715 1082.606,64.105 1047.889,142.268 
													"/>
						<polygon style="opacity:0.1;fill:#ED1C24;" points="1029.845,78.244 1047.889,142.268 1082.606,64.105 1082.606,64.105 						
							"/>
						<polygon style="opacity:0.2;fill:#ED1C24;" points="1047.889,142.268 1105.838,178.653 1103.741,95.715 1103.741,95.715 
													"/>
						<polygon style="opacity:0.05;fill:#ED1C24;" points="1029.845,78.244 1082.606,64.105 1043.984,25.483 1029.845,78.244 						
							"/>
					</g>
					<g>
						<polygon style="opacity:0.1;fill:#ED1C24;" points="962.945,145.143 962.945,145.143 967.782,226.159 1009.256,199.817 
							1009.256,199.817 						"/>
						<polygon style="opacity:0.05;fill:#ED1C24;" points="910.184,159.282 967.782,226.159 967.782,226.159 962.945,145.143 						
							"/>
					</g>
					<g>
						<polygon style="opacity:0.05;fill:#ED1C24;" points="910.184,159.282 910.184,159.282 904.771,224.856 904.771,224.856 
							967.782,226.159 						"/>
					</g>
				</g>
			</g>
		</g>
	</g>
	
		<linearGradient id="SVGID_00000171699889769209310060000009559228004155796669_" gradientUnits="userSpaceOnUse" x1="741.7656" y1="202.0076" x2="1155.6592" y2="579.7896">
		<stop  offset="0.1281" style="stop-color:#FFFFFF"/>
		<stop  offset="0.5484" style="stop-color:#FFFFFF;stop-opacity:0"/>
	</linearGradient>
	
		<polygon style="clip-path:url(#SVGID_00000092417577479551656350000006990732705275481736_);fill:url(#SVGID_00000171699889769209310060000009559228004155796669_);" points="
		1200,0 1099.784,0 1096.744,11.344 1043.984,25.483 1029.845,78.243 977.084,92.383 977.084,92.383 962.945,145.143 
		910.184,159.282 904.771,224.856 843.285,226.182 829.146,278.943 829.146,278.943 776.385,293.082 762.246,345.843 
		709.486,359.981 695.347,412.742 642.586,426.881 642.586,426.881 633.098,492.651 575.686,493.781 561.547,546.541 
		508.787,560.68 498.25,600 1200,600 	"/>
	
		<linearGradient id="SVGID_00000022518016189358647520000017706555800012472471_" gradientUnits="userSpaceOnUse" x1="446.3069" y1="398.9348" x2="36.3312" y2="-12.735">
		<stop  offset="0.1281" style="stop-color:#FFFFFF"/>
		<stop  offset="0.5484" style="stop-color:#FFFFFF;stop-opacity:0"/>
	</linearGradient>
	
		<polygon style="clip-path:url(#SVGID_00000092417577479551656350000006990732705275481736_);fill:url(#SVGID_00000022518016189358647520000017706555800012472471_);" points="
		157.544,545.711 151.904,512.73 224.444,478.811 224.444,478.811 226.215,413.682 291.344,411.911 305.482,359.15 358.243,345.012 
		372.382,292.251 372.382,292.251 372.382,292.251 425.143,278.112 439.281,225.351 492.042,211.212 506.181,158.451 
		558.942,144.313 558.942,144.312 573.081,91.552 625.842,77.413 639.981,24.652 692.741,10.513 695.559,0 0,0 0,600 116.651,600 
		110.971,566.036 	"/>
</g>
</svg>
